<svg id="Layer_1" data-name="Layer 1" xmlns="http://www.w3.org/2000/svg" viewBox="0 0 150 150"><defs><style>.cls-1{fill:#fff;}.cls-2{fill:#ddd;}</style></defs><title>User</title><path class="cls-1" d="M75,146a71,71,0,1,1,71-71A71.08,71.08,0,0,1,75,146Z"/><path class="cls-2" d="M75,8A67,67,0,1,1,8,75,67.08,67.08,0,0,1,75,8m0-8a75,75,0,1,0,75,75A75,75,0,0,0,75,0Z"/><path class="cls-2" d="M115.27,98.45q0,6.86-4.18,10.84t-11.1,4H50q-6.92,0-11.1-4T34.73,98.45q0-3,.2-5.92a58.26,58.26,0,0,1,.8-6.24,48.48,48.48,0,0,1,1.52-6.21,29.41,29.41,0,0,1,2.46-5.58,20.11,20.11,0,0,1,3.55-4.63,14.92,14.92,0,0,1,4.89-3.06,17.18,17.18,0,0,1,6.38-1.14,7,7,0,0,1,2.4,1.23l4.26,2.75a27,27,0,0,0,6.18,2.75,24.32,24.32,0,0,0,15.27,0,27,27,0,0,0,6.18-2.75l4.26-2.75a7,7,0,0,1,2.4-1.23,17.18,17.18,0,0,1,6.38,1.14,14.92,14.92,0,0,1,4.89,3.06,20.11,20.11,0,0,1,3.55,4.63,29.41,29.41,0,0,1,2.46,5.58,48.48,48.48,0,0,1,1.52,6.21,58.26,58.26,0,0,1,.8,6.24Q115.27,95.42,115.27,98.45ZM97,47.37a22,22,0,0,1-22,22,22,22,0,0,1-22-22,21.16,21.16,0,0,1,6.44-15.53,22,22,0,0,1,31.06,0A21.16,21.16,0,0,1,97,47.37Z"/></svg>