<?xml version="1.0" standalone="no"?>
<!DOCTYPE svg PUBLIC "-//W3C//DTD SVG 20010904//EN"
 "http://www.w3.org/TR/2001/REC-SVG-20010904/DTD/svg10.dtd">
<svg version="1.0" xmlns="http://www.w3.org/2000/svg"
 width="16.000000pt" height="16.000000pt" viewBox="0 0 16.000000 16.000000"
 preserveAspectRatio="xMidYMid meet">
<metadata>
Created by potrace 1.11, written by Peter Selinger 2001-2013
</metadata>
<g transform="translate(0.000000,16.000000) scale(0.004507,-0.004507)"
fill="#000000" stroke="none">
<path d="M983 3420 c-12 -5 -24 -18 -28 -29 -3 -11 -1 -111 5 -223 5 -112 15
-430 20 -707 9 -463 11 -505 27 -516 10 -8 20 -11 23 -8 3 3 -1 8 -7 10 -18 6
-16 81 1 99 9 8 16 10 18 4 2 -6 48 -11 111 -13 59 -1 107 -4 107 -7 0 -3 39
-6 87 -7 47 -1 89 -6 92 -12 3 -5 60 -9 126 -8 209 1 344 -8 358 -26 7 -9 28
-20 47 -26 l35 -10 -47 2 c-25 1 -44 -2 -41 -7 3 -4 0 -12 -7 -16 -6 -4 11 -5
39 -2 47 4 51 3 51 -17 0 -22 -1 -22 -137 -17 -76 4 -190 7 -255 9 -116 2
-116 2 -138 -26 -12 -15 -25 -25 -30 -22 -4 3 -7 -1 -6 -8 1 -13 -33 -64 -64
-97 -19 -20 -19 -54 0 -57 9 -1 33 26 60 67 25 39 48 70 53 70 12 0 8 -14 -13
-40 -11 -14 -20 -33 -20 -43 0 -10 -4 -15 -10 -12 -9 6 -14 -8 -11 -27 0 -5
-7 -8 -16 -9 -11 0 -13 -3 -5 -6 18 -7 4 -23 -16 -17 -14 5 -15 4 -2 -5 17
-12 7 -26 -32 -45 -19 -10 -22 -18 -20 -49 2 -22 -2 -45 -10 -54 -8 -10 -8
-14 -1 -10 17 10 26 -10 18 -40 -6 -25 -7 -25 -20 -7 -16 24 -17 96 -2 107 9
5 9 9 -1 15 -7 5 -10 16 -6 25 3 10 1 17 -6 17 -7 0 -9 8 -4 23 7 22 7 22 -15
3 -22 -20 -22 -20 -16 0 6 18 6 18 -8 2 -8 -10 -16 -16 -18 -13 -3 2 -21 0
-42 -4 -27 -7 -35 -6 -30 3 3 6 2 7 -3 3 -4 -4 -9 -16 -9 -25 -5 -63 -6 -68
-14 -47 -5 12 -4 23 3 27 8 5 7 8 -2 8 -7 0 -11 4 -8 9 10 16 -19 29 -74 32
l-55 4 -6 -55 c-3 -30 -6 -49 -7 -42 -1 7 -6 11 -11 8 -5 -3 -14 1 -21 9 -9
10 -9 15 -1 15 6 0 11 14 11 31 0 17 -4 28 -10 24 -5 -3 -10 -2 -10 4 0 5 8
10 18 9 9 0 37 5 62 11 l45 10 -57 -4 c-37 -3 -59 -1 -64 6 -5 9 1 10 20 5 15
-4 26 -2 26 4 0 5 -8 10 -18 10 -10 0 -19 7 -19 15 0 10 4 12 12 5 22 -18 54
3 96 63 40 58 79 104 79 93 0 -18 -25 -54 -33 -49 -6 4 -8 0 -4 -11 4 -9 3
-15 -1 -13 -14 9 -29 -19 -21 -38 4 -11 8 -14 8 -6 1 7 15 29 31 48 17 18 30
40 30 48 0 7 9 17 20 20 11 4 18 11 15 16 -4 5 1 9 9 9 9 0 16 -2 16 -5 0 -3
-25 -38 -55 -78 -30 -39 -55 -79 -55 -89 0 -33 19 -28 47 13 15 23 36 48 46
57 9 9 17 22 17 30 0 7 4 11 9 7 5 -3 12 3 14 12 4 16 5 16 6 1 0 -9 -6 -23
-14 -32 -9 -9 -11 -17 -5 -21 5 -3 10 -1 10 5 0 6 6 8 13 4 6 -4 9 -4 5 0 -3
4 1 16 10 25 10 10 24 27 32 37 8 11 22 28 30 38 14 18 13 18 -8 12 -18 -6
-21 -4 -15 10 6 15 4 15 -20 -1 -15 -9 -27 -14 -27 -11 0 4 -9 2 -20 -4 -16
-9 -25 -5 -51 20 -38 35 -44 37 -29 9 7 -11 9 -23 6 -27 -3 -3 -6 0 -6 6 0 7
-6 12 -14 12 -19 0 -146 -168 -146 -192 0 -22 -18 -24 -26 -3 -4 8 -11 12 -16
9 -6 -4 -8 -1 -6 7 3 8 11 13 17 11 7 -1 12 6 11 15 -4 34 0 63 8 63 4 0 7
-17 5 -37 -3 -34 -2 -35 7 -14 6 13 18 30 27 36 10 7 13 17 8 25 -5 9 -4 11 3
6 16 -10 15 6 0 24 -11 12 -10 12 2 3 17 -13 26 -9 55 26 l20 24 -22 -7 c-14
-5 -23 -3 -23 3 0 6 9 11 20 11 11 0 20 4 20 10 0 9 -24 4 -45 -10 -18 -12
-64 -10 -72 3 -4 7 -12 -10 -19 -43 -6 -30 -19 -82 -28 -115 -27 -101 -15
-317 21 -357 9 -10 34 -18 61 -20 46 -3 47 -3 82 -71 56 -109 70 -122 250
-235 36 -22 77 -44 93 -47 25 -7 27 -11 27 -55 0 -54 12 -68 64 -77 36 -6 36
-6 35 -55 -2 -30 -6 -47 -13 -45 -148 56 -180 57 -234 12 -26 -21 -36 -24 -83
-18 -30 3 -59 10 -66 15 -7 6 -35 8 -64 6 l-51 -3 -19 74 c-38 151 -104 247
-204 299 -43 23 -62 26 -145 27 -86 0 -100 -3 -149 -29 -152 -79 -260 -282
-261 -486 0 -133 45 -258 123 -338 56 -58 108 -87 191 -108 59 -15 76 -15 120
-4 125 30 233 138 292 290 10 25 22 48 27 51 19 13 49 -5 79 -50 17 -25 51
-70 75 -98 38 -45 50 -53 79 -53 51 0 88 40 81 86 -5 31 -4 34 12 29 30 -9
292 15 328 30 25 11 39 27 54 60 25 56 19 93 -21 139 -22 25 -31 48 -38 99
l-9 67 36 6 c60 11 71 21 64 54 -4 22 -2 30 8 30 17 0 300 -34 469 -55 152
-20 320 -11 320 16 0 5 22 9 48 9 231 0 418 242 435 565 3 56 5 61 33 70 54
18 58 25 34 50 -21 23 -21 23 -2 18 17 -4 23 4 37 49 37 110 69 153 137 182
40 16 49 30 68 114 14 63 9 92 -26 129 -23 24 -36 29 -107 36 -45 4 -98 8
-117 8 -21 0 -30 3 -21 8 15 10 -73 4 -144 -10 -27 -5 -75 -21 -105 -35 -30
-14 -49 -20 -42 -13 16 17 15 32 -1 26 -8 -3 -14 0 -14 7 0 6 13 12 29 13 15
0 28 -4 28 -9 0 -6 8 -7 18 -3 9 4 49 16 87 25 67 17 68 18 27 19 -109 3 -947
33 -1192 43 -419 17 -441 15 -547 -51 -59 -37 -100 -32 -107 13 -11 72 -34
496 -46 846 l-10 315 -26 23 c-27 23 -45 26 -81 12z m1165 -1217 c-26 -2 -71
-2 -100 0 -29 2 -8 3 47 3 55 0 79 -1 53 -3z m250 -10 c-21 -2 -57 -2 -80 0
-24 2 -7 4 37 4 44 0 63 -2 43 -4z m255 -3 c76 0 136 -4 133 -8 -2 -4 -33 -7
-68 -6 -35 1 -110 2 -168 3 -74 1 -101 4 -90 11 8 6 24 8 35 5 11 -2 82 -5
158 -5z m582 -30 c3 -5 11 -10 16 -10 6 0 8 4 5 8 -2 4 10 9 27 10 l32 3 -39
-20 c-37 -20 -62 -20 -51 0 3 5 0 6 -8 3 -8 -3 -18 -1 -22 5 -3 7 2 11 14 11
11 0 23 -4 26 -10z m-532 -37 c-7 -2 -19 -2 -25 0 -7 3 -2 5 12 5 14 0 19 -2
13 -5z m65 -21 c-8 -10 -14 -10 -27 0 -9 7 -17 13 -19 14 -1 1 11 1 27 0 22
-1 27 -4 19 -14z m-138 -82 c0 -5 -5 -10 -11 -10 -5 0 -7 5 -4 10 3 6 8 10 11
10 2 0 4 -4 4 -10z m-503 -56 c-3 -3 -12 -4 -19 -1 -8 3 -5 6 6 6 11 1 17 -2
13 -5z m-2 -69 l30 -24 -37 -1 c-34 0 -38 3 -38 25 0 31 7 31 45 0z m90 -15
c13 -6 15 -9 5 -9 -8 -1 -25 -4 -37 -7 -17 -5 -23 -2 -23 10 0 17 23 20 55 6z
m252 -23 c-4 -14 -47 -29 -47 -17 0 6 7 10 16 10 8 0 13 4 10 8 -3 5 2 9 10 9
8 0 13 -5 11 -10z m-961 -34 c-10 -10 -19 5 -10 18 6 11 8 11 12 0 2 -7 1 -15
-2 -18z m886 -3 c-13 -11 -30 -16 -39 -13 -11 4 -14 2 -9 -5 4 -7 3 -12 -2
-12 -14 0 -114 -103 -123 -128 -5 -13 -13 -20 -19 -17 -5 3 -10 -3 -10 -14 0
-12 -4 -21 -8 -21 -4 0 -9 -14 -10 -31 -3 -42 -6 -45 -55 -67 -23 -11 -61 -39
-84 -62 -24 -24 -43 -38 -43 -32 0 7 5 12 12 12 6 0 9 3 6 6 -4 3 6 18 21 32
33 33 49 67 26 58 -51 -20 -51 -20 -38 -4 7 8 10 18 6 22 -4 4 12 4 36 0 42
-7 44 -6 39 14 -4 12 -2 25 3 28 5 3 9 -2 9 -10 0 -9 5 -16 10 -16 16 0 12 15
-14 45 -14 16 -30 26 -39 22 -8 -3 -26 1 -40 8 -19 10 -27 10 -31 2 -2 -7 -5
-3 -5 8 -1 17 5 20 37 19 58 -2 62 -3 62 -19 0 -7 6 -18 13 -22 7 -4 20 -20
29 -34 16 -25 16 -26 -13 -43 -16 -9 -29 -22 -29 -27 0 -6 16 2 35 17 20 15
34 33 31 40 -7 19 33 96 46 88 8 -5 9 -2 5 9 -4 12 9 31 45 64 28 27 55 47 59
46 5 -2 13 7 19 18 7 11 18 18 25 15 7 -2 21 2 32 9 27 21 31 17 5 -5z m-892
-44 c0 -3 -4 -8 -10 -11 -5 -3 -10 -1 -10 4 0 6 5 11 10 11 6 0 10 -2 10 -4z
m0 -51 c-7 -8 -16 -15 -21 -15 -5 0 -1 9 8 20 9 11 19 17 21 15 3 -3 -1 -11
-8 -20z m245 -15 c3 -11 10 -20 15 -20 5 0 17 -3 27 -6 16 -6 16 -5 -2 10 -15
12 -16 15 -3 10 9 -3 26 -1 37 5 16 9 23 7 35 -11 9 -12 16 -17 16 -11 0 6 7
14 16 17 10 4 13 2 7 -7 -4 -6 -8 -19 -10 -27 -1 -10 3 -9 14 5 13 16 15 17
10 3 -7 -19 8 -25 18 -8 25 41 70 -45 54 -104 -8 -29 -15 -36 -34 -36 -17 0
-25 6 -25 18 -1 16 -1 16 -14 -1 -10 -13 -24 -17 -58 -14 -25 2 -50 7 -56 11
-6 3 -13 3 -16 -2 -3 -5 -19 -7 -36 -4 -33 5 -75 -22 -63 -41 3 -5 1 -7 -5 -4
-5 4 -9 19 -7 34 1 15 -1 37 -5 49 -5 11 -4 27 1 35 7 11 9 10 10 -6 1 -11 0
-24 -1 -30 -1 -5 1 -7 5 -3 4 4 18 3 32 -3 16 -6 22 -6 18 1 -3 6 -1 10 4 10
17 0 13 51 -6 72 -21 23 -14 31 11 12 21 -15 27 -65 12 -96 -5 -12 -4 -18 4
-18 6 0 8 5 5 10 -9 14 19 12 34 -2 11 -11 11 -9 2 9 -15 30 -14 50 5 57 13 5
15 -1 12 -30 -3 -32 0 -37 20 -40 20 -4 21 -2 12 16 -13 23 -5 56 19 85 15 18
15 19 0 7 -9 -7 -35 -11 -58 -9 -32 3 -45 9 -54 27 -16 32 -42 33 -56 4 -9
-21 -7 -30 11 -54 26 -36 18 -50 -12 -20 -11 11 -25 18 -30 15 -4 -3 -11 1
-13 7 -4 9 -8 10 -14 3 -4 -6 -24 -11 -43 -12 -19 -1 -46 -5 -59 -9 -17 -5
-22 -4 -17 4 5 8 0 12 -13 12 -26 0 -28 -16 -3 -22 13 -4 17 -13 16 -34 -1
-16 -3 -31 -4 -34 -6 -15 -4 -36 4 -48 5 -7 6 -28 3 -47 -4 -24 -2 -33 5 -29
7 4 8 2 4 -5 -12 -18 -28 -2 -20 21 3 12 2 18 -3 15 -6 -4 -9 25 -9 69 1 42
-4 79 -9 84 -6 5 -29 10 -52 11 -30 2 -40 6 -36 16 3 8 12 12 19 9 8 -3 11 0
8 8 -4 10 15 14 85 15 68 2 91 -1 91 -11 0 -8 5 -7 17 4 14 14 14 20 3 33 -7
8 -10 19 -6 23 4 4 12 -1 17 -11 8 -14 14 -15 32 -6 12 7 26 18 30 25 12 21
45 17 52 -6z m235 -4 c0 -2 -7 -7 -16 -10 -8 -3 -12 -2 -9 4 6 10 25 14 25 6z
m15 -16 c-3 -5 -12 -10 -18 -10 -7 0 -6 4 3 10 19 12 23 12 15 0z m332 -42
c-3 -7 -5 -2 -5 12 0 14 2 19 5 13 2 -7 2 -19 0 -25z m740 -25 c-3 -10 -5 -4
-5 12 0 17 2 24 5 18 2 -7 2 -21 0 -30z m-2033 -40 c4 -27 2 -43 -4 -43 -5 0
-10 21 -10 47 0 55 5 54 14 -4z m43 41 c-3 -3 -12 -4 -19 -1 -8 3 -5 6 6 6 11
1 17 -2 13 -5z m1073 -4 c0 -5 -2 -10 -4 -10 -3 0 -8 5 -11 10 -3 6 -1 10 4
10 6 0 11 -4 11 -10z m-1183 -22 c-3 -8 -6 -5 -6 6 -1 11 2 17 5 13 3 -3 4
-12 1 -19z m607 14 c3 -5 -1 -9 -9 -9 -8 0 -12 4 -9 9 3 4 7 8 9 8 2 0 6 -4 9
-8z m76 -4 c0 -4 -13 -8 -30 -8 -16 0 -30 4 -30 8 0 5 14 9 30 9 17 0 30 -4
30 -9z m667 -20 c-3 -7 -5 -2 -5 12 0 14 2 19 5 13 2 -7 2 -19 0 -25z m-1047
11 c0 -5 5 -7 10 -4 6 3 10 1 10 -4 0 -6 -4 -11 -9 -11 -5 0 -7 -10 -4 -21 4
-16 2 -20 -8 -17 -15 5 -21 68 -7 68 4 0 8 -5 8 -11z m760 -1 c0 -7 -5 -20
-10 -28 -8 -12 -10 -9 -10 13 0 15 5 27 10 27 6 0 10 -6 10 -12z m32 -30 c-6
-6 -8 -1 -7 14 3 32 7 36 12 14 3 -10 1 -22 -5 -28z m-638 20 c-6 -10 -5 -10
8 0 18 14 30 4 35 -30 4 -25 -29 -23 -45 2 -14 23 -41 26 -62 8 -12 -11 -12
-10 -2 3 6 9 10 18 7 20 -2 3 12 6 31 7 27 2 34 0 28 -10z m197 -47 c3 -23 2
-44 -3 -47 -4 -3 -8 16 -8 41 0 39 -3 46 -16 41 -9 -3 -12 -2 -9 5 13 20 30 1
36 -40z m26 -13 c-2 -13 -4 -5 -4 17 -1 22 1 32 4 23 2 -10 2 -28 0 -40z m-90
-5 c-3 -10 -5 -2 -5 17 0 19 2 27 5 18 2 -10 2 -26 0 -35z m-331 24 c8 3 14
-1 14 -11 0 -10 -9 -16 -25 -16 -19 0 -25 5 -25 22 0 16 3 19 11 11 6 -6 18
-9 25 -6z m158 -28 c-10 -16 -23 -9 -21 10 1 15 4 17 14 9 7 -5 10 -14 7 -19z
m624 20 c-2 -6 -8 -10 -13 -10 -5 0 -11 4 -13 10 -2 6 4 11 13 11 9 0 15 -5
13 -11z m-996 -25 c0 -8 1 -20 2 -26 1 -7 -11 -13 -25 -13 -24 -1 -25 1 -13
24 7 13 11 28 8 33 -3 4 2 5 10 2 9 -3 17 -12 18 -20z m395 -6 c-3 -7 -5 -2
-5 12 0 14 2 19 5 13 2 -7 2 -19 0 -25z m-239 6 c4 2 8 -9 9 -24 2 -23 -4 -30
-28 -40 -20 -9 -26 -15 -18 -21 7 -4 2 -6 -13 -6 -16 1 -24 7 -21 15 6 15 -2
15 -26 0 -15 -9 -23 -9 -35 1 -29 24 -17 30 54 24 l69 -6 -4 39 c-3 21 -3 33
1 26 3 -6 9 -10 12 -8z m515 -59 c4 -8 2 -17 -3 -20 -6 -4 -10 3 -10 14 0 25
6 27 13 6z m-375 -25 c5 -13 3 -13 -13 0 -17 13 -18 13 -13 0 4 -11 -2 -15
-21 -16 -14 -1 -20 1 -13 3 22 8 13 20 -12 16 -13 -3 -32 0 -43 6 -14 9 -4 10
46 9 47 -2 66 -7 69 -18z m121 0 c23 0 41 -5 41 -11 0 -5 6 -7 13 -3 9 5 9 4
0 -6 -9 -10 -21 -10 -58 -1 -48 12 -70 8 -59 -12 4 -7 -1 -5 -10 4 -23 21 -11
53 14 39 10 -6 37 -10 59 -10z m-216 -17 c-7 -2 -19 -2 -25 0 -7 3 -2 5 12 5
14 0 19 -2 13 -5z m429 -4 c10 0 20 -3 22 -7 7 -12 -103 -7 -115 5 -9 9 -2 11
32 8 24 -3 52 -5 61 -6z m328 -53 c0 -2 -8 -10 -17 -17 -16 -13 -17 -12 -4 4
13 16 21 21 21 13z m486 -248 l29 -33 -32 29 c-31 28 -38 36 -30 36 2 0 16
-15 33 -32z m54 22 c0 -5 -5 -10 -11 -10 -5 0 -7 5 -4 10 3 6 8 10 11 10 2 0
4 -4 4 -10z m-1590 -40 c0 -24 -26 -38 -42 -22 -16 16 -2 42 22 42 13 0 20 -7
20 -20z m665 -134 c-11 -8 -25 -12 -32 -9 -20 8 -4 23 25 23 24 0 25 -1 7 -14z
m44 -141 c-2 -64 -15 -74 -21 -15 -3 36 5 70 17 70 3 0 4 -25 4 -55z m-1244
-15 c11 -18 -6 -50 -26 -50 -13 0 -19 7 -19 23 0 13 3 27 7 30 10 10 31 8 38
-3z m453 -431 c4 -19 -27 -34 -41 -20 -14 14 0 43 20 39 10 -2 19 -10 21 -19z"/>
<path d="M2045 1650 c3 -5 8 -10 11 -10 2 0 4 5 4 10 0 6 -5 10 -11 10 -5 0
-7 -4 -4 -10z"/>
<path d="M1806 1684 c-9 -24 -8 -26 16 -22 29 4 38 38 10 38 -11 0 -23 -7 -26
-16z"/>
<path d="M1862 1638 c-21 -21 -15 -68 11 -77 32 -13 42 -2 18 21 -23 21 -20
41 4 31 10 -3 15 2 15 16 0 24 -28 29 -48 9z"/>
<path d="M1925 1630 c-4 -6 -4 -14 -1 -17 3 -3 1 -12 -5 -19 -15 -18 -2 -34
27 -34 23 0 25 3 22 37 -3 38 -28 57 -43 33z"/>
<path d="M990 1490 c0 -5 5 -10 11 -10 5 0 7 5 4 10 -3 6 -8 10 -11 10 -2 0
-4 -4 -4 -10z"/>
<path d="M1261 1953 c0 -5 4 -16 8 -26 6 -17 8 -17 26 4 l20 22 -24 -8 c-16
-5 -21 -4 -17 4 4 6 2 11 -3 11 -6 0 -11 -3 -10 -7z"/>
<path d="M1525 1955 c23 -8 83 -10 79 -3 -3 4 -24 8 -47 7 -23 0 -37 -2 -32
-4z"/>
<path d="M1213 1942 c-17 -11 1 -36 21 -29 9 4 16 12 15 19 0 10 -2 10 -6 1
-2 -7 -9 -13 -15 -13 -6 0 -8 7 -4 15 6 17 5 18 -11 7z"/>
<path d="M1330 1936 c0 -4 11 -6 25 -4 14 3 25 1 25 -3 0 -5 7 -6 15 -3 27 11
16 19 -25 19 -22 0 -40 -4 -40 -9z"/>
<path d="M1485 1940 c-3 -5 -1 -10 4 -10 6 0 11 5 11 10 0 6 -2 10 -4 10 -3 0
-8 -4 -11 -10z"/>
<path d="M1431 1909 c-13 -11 -31 -17 -40 -14 -9 2 -21 1 -27 -3 -18 -12 -132
-170 -139 -193 -7 -21 7 -39 30 -39 6 1 2 5 -7 11 -24 14 -23 28 2 22 11 -3
20 -1 20 5 0 17 119 172 132 172 9 0 8 -3 -2 -10 -10 -6 -11 -13 -5 -19 7 -6
25 4 53 29 23 21 38 41 32 45 -5 3 -10 1 -10 -4 0 -6 -8 -11 -17 -11 -15 0
-16 2 -3 10 8 5 12 11 10 14 -3 2 -16 -4 -29 -15z"/>
<path d="M1395 1910 c-3 -5 -2 -10 4 -10 5 0 13 5 16 10 3 6 2 10 -4 10 -5 0
-13 -4 -16 -10z"/>
<path d="M1828 1913 c6 -2 18 -2 25 0 6 3 1 5 -13 5 -14 0 -19 -2 -12 -5z"/>
<path d="M1377 1823 c5 -12 3 -14 -8 -8 -8 4 -11 4 -6 0 4 -5 0 -16 -9 -26 -9
-10 -14 -26 -12 -36 4 -15 7 -14 18 9 7 15 16 25 20 23 9 -6 21 35 14 47 -10
15 -23 8 -17 -9z"/>
<path d="M1183 1729 c-24 -29 -39 -59 -29 -59 3 0 12 14 21 30 9 17 22 30 30
30 7 0 17 5 21 12 4 6 3 8 -4 4 -5 -3 -12 -2 -14 2 -1 5 -13 -3 -25 -19z"/>
<path d="M1317 1743 c4 -9 2 -14 -3 -10 -16 9 -14 -34 2 -57 7 -11 14 -28 14
-38 0 -26 17 -22 24 5 4 15 0 26 -14 36 -20 13 -29 48 -10 36 6 -3 10 -2 10 4
0 17 -12 41 -21 41 -4 0 -5 -7 -2 -17z"/>
<path d="M1069 1722 c12 -8 11 -11 -3 -15 -15 -4 -15 -5 1 -3 19 1 21 19 1 24
-10 3 -10 1 1 -6z"/>
<path d="M1183 1690 c-20 -35 -21 -35 -51 -14 -12 8 -30 13 -40 11 -13 -4 -11
-5 5 -6 13 -1 28 -12 36 -27 l14 -27 24 24 c13 13 27 23 31 22 4 -2 7 8 6 22
-1 14 -3 25 -5 25 -1 0 -10 -13 -20 -30z"/>
<path d="M1275 1680 c-3 -5 -1 -10 4 -10 6 0 11 5 11 10 0 6 -2 10 -4 10 -3 0
-8 -4 -11 -10z"/>
<path d="M1210 1649 c0 -5 5 -7 10 -4 6 3 10 8 10 11 0 2 -4 4 -10 4 -5 0 -10
-5 -10 -11z"/>
<path d="M991 1604 c0 -11 3 -14 6 -6 3 7 2 16 -1 19 -3 4 -6 -2 -5 -13z"/>
</g>
</svg>
